<svg xmlns="http://www.w3.org/2000/svg" xmlns:xlink="http://www.w3.org/1999/xlink" width="321" height="311" viewBox="0 0 321 311">
    <defs>
        <path id="a" d="M0 0h297v287H0z"/>
        <filter id="b" width="116.2%" height="116.7%" x="-8.1%" y="-4.2%" filterUnits="objectBoundingBox">
            <feOffset dy="12" in="SourceAlpha" result="shadowOffsetOuter1"/>
            <feGaussianBlur in="shadowOffsetOuter1" result="shadowBlurOuter1" stdDeviation="6"/>
            <feComposite in="shadowBlurOuter1" in2="SourceAlpha" operator="out" result="shadowBlurOuter1"/>
            <feColorMatrix in="shadowBlurOuter1" values="0 0 0 0 0.7091571 0 0 0 0 0.7091571 0 0 0 0 0.7091571 0 0 0 0.105044158 0"/>
        </filter>
        <linearGradient id="d" x1="50%" x2="50%" y1="0%" y2="113.201%">
            <stop offset="0%" stop-color="#E2E2E2" stop-opacity=".295"/>
            <stop offset="100%" stop-color="#FFF" stop-opacity=".359"/>
        </linearGradient>
    </defs>
    <g fill="none" fill-rule="evenodd" transform="translate(12)">
        <mask id="c" fill="#fff">
            <use xlink:href="#a"/>
        </mask>
        <use fill="#000" filter="url(#b)" xlink:href="#a"/>
        <use fill="#FFF" xlink:href="#a"/>
        <path stroke="#DCDCDC" d="M.5.5h296v286H.5z"/>
        <g fill-rule="nonzero" mask="url(#c)" opacity=".405">
            <path fill="#DEDFE0" d="M38.032 55.016l3.012-10.58 1.924.548-3.012 10.58z"/>
            <path fill="#F05662" d="M35.45 178.165l.12-1.997 10.98.667-.12 1.997zM129.85 245.103l7.91-7.644 1.39 1.438-7.91 7.644z"/>
            <path fill="#DEDFE0" d="M99.411 51.63l.313-1.976 10.865 1.717-.313 1.975zM98.95 114.672l10.508-3.254.592 1.91-10.508 3.254zM100.807 173.803l1.57-1.24 6.816 8.634-1.57 1.24zM162.718 175.668l.983-1.742 9.58 5.406-.982 1.742zM228.69 214.833l3.738-10.346 1.881.68-3.737 10.346zM193.984 240.033l1.19-1.608 8.842 6.542-1.19 1.608zM289.985 269.61l1.627-1.164 6.403 8.944-1.627 1.164zM5.482 143.155l1.755-.96 5.28 9.65-1.754.96zM70.446 215.2l2.146-10.79 1.962.39-2.146 10.79zM3.44 241.915l.562-1.92 10.557 3.09-.561 1.92zM34.935 274.528l10.588-2.982.542 1.926-10.588 2.982zM194.157 85.645l9.765-5.065.92 1.775-9.764 5.065zM226.323 110.29l1.718-1.026 5.636 9.447-1.718 1.025zM197.256 141.189l1.982-.274 1.506 10.896-1.982.274zM256.91 84.03l10.811-2.026.37 1.965-10.812 2.027zM290.982 117.292l7.589-7.963 1.447 1.38-7.589 7.962z"/>
            <path fill="#F05662" d="M65.9 19.21l1.132-1.648 9.068 6.227-1.132 1.649z"/>
            <path fill="#56C7D9" d="M194.55 18.116l1.476-1.35 7.424 8.118-1.476 1.35zM294.33 56.466l.34-10.994 2 .062-.34 10.994z"/>
            <path fill="#DEDFE0" d="M11.563 47.18c-1.163-1.427-3.14-1.582-4.506-.342l-3.925 3.597c-1.366 1.24-1.512 3.317-.349 4.775L8.25 62 17 53.97l-5.437-6.79zM8.54 58.154l-3.344-4.124c-.436-.558-.378-1.55.146-2.015l2.965-2.728c.494-.435 1.308-.342 1.774.248l3.343 4.123-4.884 4.496z"/>
            <path fill="#56C7D9" d="M69.21 80.206c-1.622.475-2.545 2.151-2.097 3.799l1.37 4.776c.475 1.648 2.124 2.57 3.773 2.094L80 88.67 76.953 78l-7.744 2.206zm7.77 6.787l-4.724 1.34c-.615.168-1.425-.25-1.593-.893l-1.034-3.63c-.168-.587.251-1.258.922-1.453l4.725-1.34 1.705 5.976zM172.506 111.632c-.322-1.758-1.962-2.9-3.748-2.578l-5.125.908c-1.787.322-2.9 1.933-2.578 3.72L162.55 122 174 119.95l-1.494-8.318zm-7.878 7.38l-.908-5.066c-.117-.674.41-1.436 1.084-1.553l3.895-.703c.644-.117 1.289.41 1.435 1.113l.908 5.067-6.414 1.143z"/>
            <path fill="#DEDFE0" d="M169.506 24.177a2.817 2.817 0 0 0 2.475-3.137l-.516-4.552c-.18-1.568-1.52-2.648-3.093-2.468l-7.372.822L162.134 25l7.372-.823zm-6.006-7.354l4.511-.489c.593-.077 1.237.463 1.315 1.054l.386 3.446c.052.566-.438 1.106-1.056 1.183l-4.511.489-.645-5.683zM140.412 53.616c1.027-1.564.675-3.66-.793-4.787l-4.285-3.191c-1.468-1.096-3.434-.751-4.462.813L126 53.835 135.54 61l4.872-7.384zm-10.831-.438l2.964-4.506c.382-.594 1.321-.782 1.879-.344l3.229 2.44c.528.408.616 1.284.205 1.91l-2.964 4.505-5.313-4.005zM37.597 142.545c-1.753.32-2.863 1.982-2.542 3.76l.965 5.103c.321 1.778 1.957 2.856 3.71 2.536L48 152.37 45.838 141l-8.24 1.545zm7.423 7.784l-5.056.962c-.672.117-1.46-.408-1.578-1.079l-.73-3.848c-.117-.641.38-1.283 1.11-1.428l5.055-.962 1.199 6.355zM10.915 205.935c-1.275-1.301-3.275-1.24-4.492.155l-3.535 3.999c-1.217 1.395-1.188 3.472.116 4.774L9.06 221l7.94-8.927-6.085-6.138zm-1.97 11.252l-3.71-3.75c-.492-.496-.521-1.488-.058-2.015l2.695-3.038c.435-.496 1.275-.465 1.797.062l3.709 3.75-4.434 4.991zM101.66 237.443c-1.762.294-2.908 1.972-2.614 3.738l.91 5.152c.324 1.796 1.91 2.915 3.702 2.62l8.342-1.442L110.003 236l-8.343 1.443zm7.373 7.977l-5.082.884c-.675.117-1.439-.442-1.556-1.09l-.676-3.915c-.118-.648.411-1.295 1.116-1.413l5.082-.883 1.116 6.417zM162.494 269.575a3.238 3.238 0 0 0-.976 4.486l2.838 4.427c.975 1.535 2.925 1.977 4.462.974l7.182-4.575-6.325-9.887-7.181 4.575zm9.93 4.545l-4.374 2.804c-.591.354-1.507.177-1.892-.413l-2.128-3.365c-.354-.56-.118-1.358.503-1.741l4.374-2.804 3.517 5.519zM229.49 142.01a2.85 2.85 0 0 0-3.087 2.637l-.393 4.62c-.13 1.592.995 2.95 2.59 3.08l7.51.653.89-10.337-7.51-.653zm4.527 8.484l-4.579-.392c-.602-.052-1.151-.704-1.099-1.305l.314-3.498c.052-.574.654-1.018 1.282-.966l4.58.392-.498 5.769zM161.88 207.046a3.152 3.152 0 0 0 .116 4.484l3.72 3.558c1.277 1.244 3.253 1.215 4.473-.087l5.811-6.017-8.31-7.984-5.81 6.046zm10.517 2.054l-3.544 3.674c-.465.492-1.395.492-1.889.029l-2.818-2.72c-.465-.433-.436-1.272.058-1.793l3.545-3.674 4.648 4.484zM268.847 241.543c.52-1.563-.329-3.263-1.917-3.81l-4.63-1.564c-1.589-.548-3.26.275-3.78 1.892l-2.52 7.485L266.327 249l2.52-7.457zm-9.806 2.522l1.534-4.578c.191-.603.986-.987 1.588-.795l3.507 1.179c.575.191.876.904.657 1.562l-1.507 4.579-5.78-1.947zM292.923 185.383c1.467 1.096 3.433.689 4.489-.878l2.992-4.574c1.027-1.598.704-3.665-.792-4.762L292.689 170 286 180.213l6.923 5.17zm.382-11.53l4.224 3.133c.557.408.733 1.41.323 2.005l-2.26 3.447c-.38.564-1.202.689-1.789.219l-4.224-3.164 3.726-5.64zM257.496 113.212c-.947 1.507-.503 3.488 1.036 4.463l4.44 2.808c1.54.975 3.493.532 4.47-1.005l4.558-7.212-9.946-6.266-4.558 7.212zm10.922-.118l-2.782 4.404c-.355.59-1.302.798-1.894.414l-3.375-2.129c-.562-.354-.68-1.182-.296-1.803l2.783-4.404 5.564 3.518z"/>
            <path fill="#F05662" d="M234.617 79.205c-1.135-1.43-3.142-1.616-4.51-.404l-3.957 3.543c-1.368 1.244-1.542 3.295-.379 4.787L231.154 94 240 86.074l-5.383-6.869zm-3.172 10.972l-3.288-4.196c-.436-.56-.349-1.554.175-2.02l2.997-2.704c.495-.436 1.31-.311 1.775.28l3.288 4.195-4.947 4.445zM140.2 179.737c1.165-1.305 1.048-3.306-.29-4.495l-3.87-3.421c-1.34-1.19-3.289-1.073-4.482.26L126 178.346l8.643 7.655 5.558-6.263zm-10.62-1.624l3.404-3.828c.437-.492 1.397-.55 1.892-.115l2.939 2.58c.494.435.494 1.247 0 1.798l-3.405 3.827-4.83-4.262zM2.701 271.962c-1.11 1.46-.877 3.605.527 4.786l4.035 3.481c1.403 1.212 3.363.964 4.474-.528L17 272.708 7.935 265l-5.234 6.962zm10.732 1.181l-3.217 4.258c-.438.56-1.374.684-1.9.218l-3.07-2.611c-.498-.435-.556-1.306-.088-1.927l3.216-4.258 5.059 4.32z"/>
            <path fill="#DEDFE0" d="M226.678 22.406c.13 1.566 1.514 2.714 3.106 2.584l4.618-.418c1.592-.13 2.74-1.488 2.584-3.08L236.333 14 226 14.914l.678 7.492zm7.594-5.926l.391 4.568c.053.6-.495 1.253-1.096 1.305l-3.496.314c-.574.052-1.122-.444-1.175-1.097l-.39-4.568 5.766-.522zM196 56.254l3.113.746L205 52.925l-3.17-6.206-3.113-.719 3.141 6.18z"/>
            <path fill="#F05662" d="M139 80.321L135.944 79 129 81.912l1.84 6.74L133.896 90l-1.87-6.767zM258 214.273l2.778 1.727 7.222-2.144-.877-7.13-2.778-1.726.848 7.13z"/>
            <path fill="#DEDFE0" d="M4.895 16L3 18.58 4.316 26l6.79-.059L13 23.331l-6.79.088z"/>
            <path fill="#56C7D9" d="M230.212 183l3.424-.324 4.364-5.784-5.576-4.892-3.424.324 5.545 4.892zM230.379 279l3.182-.614 3.439-6.114-5.79-4.272-3.21.64 5.79 4.273z"/>
            <path fill="#DEDFE0" d="M78 114.275l-1.866-2.72-7.268-.555L67 118.31l1.866 2.69 1.867-7.28zM132.61 142l-2.58 1.9-.03 6.807 7.42 1.293 2.58-1.9-7.42-1.293z"/>
            <path fill="#56C7D9" d="M38 246.618L41.018 248 48 245.182l-1.746-6.8L43.266 237l1.716 6.8zM132.443 270L130 272.01l.23 6.918 7.299 1.072 2.471-2.01-7.328-1.073z"/>
            <path fill="#DEDFE0" d="M102.97 19.888c.22-.682 1.048-1.084 1.626-.837l3.97 1.642.11.031.47.217.082-.248.772-2.292-.579-.248-4.604-1.921c-1.599-.682-3.28.186-3.887 1.983L99 24.04l2.26.96 1.71-5.112z"/>
            <path fill="#F05662" d="M296.696 19.49c.495.476.495 1.455.03 1.93l-3.086 3.265-.087.089-.378.415.174.179L295.01 27l.465-.475 3.609-3.799c1.251-1.336 1.222-3.324-.088-4.6L294.775 14 293 15.87l3.696 3.62z"/>
            <path fill="#DEDFE0" d="M262.64 49.575c.504-.488 1.483-.423 1.928.13l2.998 3.742.09.097.385.456.178-.163L270 52.145l-.445-.553-3.502-4.36c-1.217-1.497-3.206-1.66-4.571-.325L257 51.234l1.721 2.148 3.918-3.807zM5.63 83.559c-.06-.677.528-1.412 1.203-1.5l4.492-.441h.117l.558-.06-.03-.234L11.737 79l-.646.059-5.197.53c-1.79.176-3.053 1.705-2.877 3.529L3.604 89l2.554-.265-.529-5.176zM166.988 87.802c-.514.39-1.31.18-1.645-.39l-2.158-3.842-.052-.09-.257-.48-.18.15L161 84.44l.308.571 2.493 4.472c.874 1.561 2.57 1.981 3.881.96l4.318-3.3-1.234-2.192-3.778 2.851zM7.877 117.969c-.52.35-1.326.088-1.638-.497l-1.977-3.887-.052-.088-.234-.497-.182.117L2 114.257l.286.584 2.288 4.53c.807 1.58 2.47 2.076 3.875 1.2L13 117.676l-1.118-2.222-4.005 2.514z"/>
            <path fill="#56C7D9" d="M69.985 145.518c.246-.613 1.065-.947 1.638-.724l3.876 1.587.109.028.491.194.082-.222.819-2.06-.573-.223-4.504-1.866c-1.556-.64-3.248.084-3.876 1.67L66 149.083l2.21.918 1.775-4.482z"/>
            <path fill="#F05662" d="M261.807 148.868c-.679-.086-1.269-.834-1.15-1.494l.619-4.368.03-.115.088-.546-.236-.029-2.331-.316-.089.632-.708 5.058c-.236 1.753.944 3.304 2.744 3.534l5.872.776.354-2.5-5.193-.632z"/>
            <path fill="#DEDFE0" d="M71.593 175.7c.505-.525 1.457-.493 1.933.065l3.094 3.677.09.098.386.46.179-.197L79 178.03l-.446-.558-3.6-4.3c-1.25-1.477-3.242-1.575-4.581-.197L66 177.472l1.785 2.101 3.808-3.873zM135.444 208.963c.614-.247 1.424.215 1.647.893l1.396 4.466.028.124.168.554.223-.092 2.094-.801-.195-.647-1.62-5.175c-.558-1.786-2.261-2.71-3.88-2.094L130 208.224l.81 2.556 4.634-1.817zM196.694 209.847c.028-.67.695-1.31 1.334-1.281l4.25.204h.11l.529.029v-.233l.083-2.3-.639-.03-4.944-.232c-1.723-.087-3.084 1.252-3.167 3.028l-.25 5.852 2.444.116.25-5.153zM296.105 240.1c.675.087 1.262.818 1.203 1.49l-.499 4.445v.117l-.059.556.235.029 2.318.263.088-.643.587-5.176c.205-1.783-1.027-3.333-2.817-3.538l-5.868-.643-.293 2.544 5.105.555zM101.724 274.694c-.119-.638.446-1.36 1.1-1.472l4.492-.722.119-.028.565-.083-.03-.222-.416-2.167-.654.111-5.206.861c-1.814.306-2.944 1.834-2.647 3.528l1.041 5.5 2.558-.417-.922-4.889z"/>
            <path fill="#56C7D9" d="M39.857 20.833l.31-1.976 1.976.31-.31 1.976z"/>
            <path fill="#DEDFE0" d="M133.586 19.979l1.435-1.393 1.393 1.435-1.435 1.393zM261.752 20.665l.583-1.913 1.913.583-.583 1.913zM228.613 50.726l1.661-1.113 1.113 1.661-1.661 1.113zM292.587 84.053l1.36-1.466 1.466 1.36-1.36 1.466zM167.595 51.163l1.242-1.568 1.568 1.242-1.242 1.568zM103.834 83.2l1.966-.366.366 1.966-1.966.366zM69.752 51.666l.582-1.914 1.914.582-.582 1.914z"/>
            <path fill="#F05662" d="M39.605 84.231l1.164-1.626 1.626 1.164-1.164 1.626z"/>
            <path fill="#DEDFE0" d="M197.872 113.146l1.982-.274.274 1.982-1.982.274zM133.988 113.012l2-.024.024 2-2 .024zM39.953 114.95l.096-1.997 1.998.096-.096 1.998zM103.722 147.394l1.884-.672.672 1.884-1.884.672zM166.876 147.142l1.982-.266.266 1.982-1.982.266zM292.814 148.77l.415-1.956 1.957.415-.415 1.957zM261.658 178.554l1.788-.896.896 1.788-1.788.896z"/>
            <path fill="#56C7D9" d="M197.87 178.15l1.98-.28.28 1.98-1.98.28z"/>
            <path fill="#DEDFE0" d="M7.737 178.364l1.9-.627.626 1.9-1.9.626zM39.852 210.826l.322-1.974 1.974.322-.322 1.974zM103.943 210.94l.117-1.997 1.997.117-.117 1.997zM292.661 210.456l.883-1.795 1.795.883-.883 1.795zM228.675 241.507l1.818-.832.832 1.818-1.818.832zM166.588 242.075l1.337-1.487 1.487 1.337-1.337 1.487zM69.648 242.414l.938-1.766 1.766.938-.938 1.766zM69.72 273.4l1.88-.68.68 1.88-1.88.68zM197.586 273.958l1.456-1.372 1.372 1.456-1.456 1.372zM261.601 273.79l1.61-1.189 1.188 1.61-1.61 1.188z"/>
        </g>
        <path fill="url(#d)" d="M0 0h297v287H0z" mask="url(#c)"/>
    </g>
</svg>