<svg xmlns="http://www.w3.org/2000/svg" xmlns:xlink="http://www.w3.org/1999/xlink" width="156" height="59" viewBox="0 0 156 59">
    <defs>
        <path id="a" d="M0 59h156V.958H0z"/>
    </defs>
    <g fill="none" fill-rule="evenodd">
        <path fill="#EF5662" d="M124 32h4.999V0H124z"/>
        <g transform="translate(0 -.958)">
            <path fill="#EF5662" d="M151 27.958h-10.483c-1.354 0-2.517-.976-2.517-2.329v-7.854c0-1.293 1.064-2.817 2.517-2.817H151v13zm-11.92-18c-3.533 0-6.08 3.155-6.08 6.73V27.05c0 3.595 2.487 5.908 6.08 5.908H156v-23h-16.92zM115 27.958h-10.979c-1.354 0-2.021-.976-2.021-2.329v-7.854c0-1.293.568-2.817 2.021-2.817H115v13zm-12.415-18c-3.533 0-5.585 3.155-5.585 6.73V27.05c0 3.595 1.991 5.908 5.585 5.908H120v-23h-17.415z"/>
            <mask id="b" fill="#fff">
                <use xlink:href="#a"/>
            </mask>
            <path fill="#EF5662" d="M72 32.958h5v-32h-5zM93.85 9.958h-6.57l-9.503 11.5 9.5 11.5h6.573l-9.501-11.5z" mask="url(#b)"/>
            <path fill="#77787B" d="M43.885 27.958c-1.374 0-2.885-.9-2.885-2.274v-7.968c0-1.312 1.411-2.758 2.885-2.758H54v13H43.885zM59 9.958H42.427c-3.584 0-6.427 3.028-6.427 6.654v10.514c0 3.647 2.782 5.832 6.427 5.832H54v1.814c0 1.374-1.069 2.186-2.442 2.186H46.42l-5.264-.092 3.916 5.092h7.93c3.646 0 5.998-2.082 5.998-5.728V9.958zM27 32.958h5v-23h-5zM27 5.958h5v-5h-5zM63 32.958h5v-23h-5zM63 5.958h5v-5h-5zM18 27.958H7.425C5.972 27.958 5 27.124 5 25.831v-8.143c0-1.293.97-2.73 2.423-2.73H18v13zm0-27v9.121-.12H5.988C2.395 9.958 0 12.96 0 16.555V26.92c0 3.573 2.455 6.04 5.988 6.04H23V.957h-5zM3.649 52.676h1.377v-1.199H3.649z" mask="url(#b)"/>
            <path fill="#77787B" d="M14.432 53.241c0 .328-.097.58-.29.753-.193.174-.46.261-.806.261H9.55c-.325 0-.59-.087-.799-.26-.209-.175-.313-.41-.313-.708v-1.844H7.264v3.765c0 .328-.047.637-.14.93a2.124 2.124 0 0 1-.447.776 2.114 2.114 0 0 1-.767.53 2.82 2.82 0 0 1-1.088.193h-.626c-.845 0-1.45-.22-1.815-.662-.366-.44-.548-1.03-.548-1.767v-2.413H.66v2.46c0 1.116.295 1.997.886 2.642.591.646 1.42.968 2.486.968h.878c.544 0 1.03-.097 1.46-.292a3.381 3.381 0 0 0 1.096-.783c.303-.328.536-.715.698-1.16.162-.447.244-.92.244-1.422v-.23c.146.184.32.315.524.391.203.077.41.115.618.115h3.872c.691 0 1.228-.186 1.611-.56.382-.374.573-.914.573-1.62v-1.86h-1.173v1.797zM14.041 58.602h1.252V57.45h-1.252zM12.084 58.602h1.268V57.45h-1.268zM26.026 49.086h1.379v-1.2h-1.379zM26.637 53.07c0 .328-.097.58-.29.754-.193.174-.462.261-.807.261h-1.504c-.303 0-.569-.075-.799-.223-.23-.148-.345-.413-.345-.792v-4.049h-1.174v4.05c0 .327-.092.578-.275.753-.183.174-.457.261-.823.261h-1.598v-5.064h-1.175v6.295h2.773c.314 0 .612-.059.893-.177.283-.118.533-.356.752-.715.21.36.463.597.761.715.297.118.624.177.98.177H25.623c.693 0 1.23-.187 1.613-.56.383-.376.575-.917.575-1.624V51.27h-1.175v1.8zM29.98 46.418c-.16.102-.308.31-.448.623l-.363.788.67.304.267-.563c.073-.165.157-.262.25-.295.095-.032.225-.048.392-.048h2.364l.042-.96h-2.448c-.325 0-.567.05-.726.151M30.942 54.857h.997v-5.413h-.997zM45.729 58.647h1.297v-1.18h-1.297zM50.253 54.882c.391-.383.586-.936.586-1.659v-1.904h-1.2v1.84c0 .336-.1.593-.298.772-.197.178-.472.267-.824.267H42.59c-.352 0-.619-.082-.8-.244-.182-.162-.348-.437-.497-.826l-1.506-4.247-1.154.456c.3.808.54 1.461.721 1.959.182.498.32.894.417 1.188.096.294.16.51.192.652.032.142.048.255.048.339 0 .157-.075.317-.224.479-.15.162-.422.244-.817.244h-3.076l.08 1.258h3.124a2.59 2.59 0 0 0 1.001-.188c.304-.126.558-.372.761-.74.246.388.515.64.81.755.293.116.6.173.92.173H48.607c.706 0 1.255-.191 1.646-.574M47.732 58.647h1.282v-1.18h-1.282zM58.424 49.266h1.347v-1.172h-1.347zM61.478 50.626a1.742 1.742 0 0 0-.728-.383 3.255 3.255 0 0 0-.75-.09h-3.138l-.077 1.202h3.047c.235 0 .431.023.589.068.159.046.291.113.398.203.108.091.2.198.276.323.077.126.151.27.222.43l-2.082 1.172c-.215.12-.424.218-.628.293a4.267 4.267 0 0 1-.65.18 6.35 6.35 0 0 1-.766.098c-.281.02-.595.03-.942.03h-.75c-.316 0-.577-.086-.78-.255-.205-.17-.307-.402-.307-.692V51.4h-1.148v3.73c0 .3-.046.591-.138.871-.091.28-.235.528-.428.744a2.11 2.11 0 0 1-.751.52c-.306.13-.668.194-1.087.194h-.214l.077 1.203h.336c.47 0 .906-.088 1.309-.264.403-.174.752-.42 1.046-.736.293-.315.525-.689.696-1.12.171-.43.256-.902.256-1.413v-.27c.143.18.317.307.521.383.204.074.408.113.612.113H56.204c.408 0 .773-.015 1.094-.045.322-.03.613-.076.873-.136.26-.06.508-.14.743-.24.234-.1.474-.22.719-.362l2.97-1.713c-.133-.582-.296-1.049-.49-1.406-.194-.355-.406-.63-.635-.827M70.538 54.236h-1.121c-.55 0-.921-.087-1.113-.261-.193-.174-.288-.459-.288-.855 0-.43.103-.767.31-1.017.209-.25.509-.376.904-.376.415 0 .737.129.965.383.228.255.343.678.343 1.27v.855zm.42-3.051a2.009 2.009 0 0 0-.755-.482 2.689 2.689 0 0 0-.911-.153c-.395 0-.74.073-1.035.215a2.23 2.23 0 0 0-.747.574 2.445 2.445 0 0 0-.46.84 3.288 3.288 0 0 0-.156 1.017c0 .355.034.675.102.955.067.28.192.517.374.71.18.195.427.343.739.444.31.102.71.154 1.199.154h1.214c-.021.294-.083.57-.187.824a2.081 2.081 0 0 1-.451.681 2.068 2.068 0 0 1-.732.465 2.784 2.784 0 0 1-1.012.17h-1.463l.077 1.223h1.464c.539 0 1.022-.098 1.448-.291a3.217 3.217 0 0 0 1.082-.788c.296-.33.52-.712.677-1.147.156-.432.234-.888.234-1.367v-1.911c0-.5-.062-.925-.187-1.276a2.264 2.264 0 0 0-.514-.858zM79.698 58.457h1.313v-1.158h-1.313zM83.742 53.316c0 .313-.087.552-.26.718-.176.168-.436.25-.785.25h-4.476c-.468 0-.786-.105-.955-.316-.169-.21-.253-.49-.253-.842V51.56h-1.12v1.846c0 .273.04.535.12.783.08.25.202.468.366.651.164.188.38.336.643.449.263.112.585.169.964.169h4.887c.26 0 .51-.043.748-.126.24-.083.45-.205.635-.367.184-.16.331-.36.441-.6a1.98 1.98 0 0 0 .164-.828v-1.934h-1.119v1.715zM95.032 48.996h1.428v-1.242h-1.428zM104.182 48.972h1.347v-1.195h-1.347zM102.203 48.972h1.347v-1.195h-1.347zM109.796 53.122c0 .34-.1.601-.3.781-.2.181-.478.271-.836.271H106.794c-.302 0-.572-.077-.811-.232-.237-.153-.356-.426-.356-.82V51.26h-1.217v1.863c0 .34-.094.601-.284.781-.19.181-.474.271-.851.271h-3.489c-.314 0-.571-.059-.771-.176-.2-.116-.376-.328-.528-.637l.974-.557c-.141-.617-.313-1.113-.52-1.49-.205-.377-.43-.67-.672-.877a1.855 1.855 0 0 0-.771-.406 3.493 3.493 0 0 0-.795-.095h-3.326l-.081 1.275h3.229c.249 0 .457.023.625.071.167.048.307.12.42.215.115.096.212.21.293.343.08.133.16.284.236.454l-2.207 1.242c-.227.128-.45.232-.665.311-.217.08-.447.143-.69.191a6.59 6.59 0 0 1-.811.104c-.297.021-.63.032-.998.032H89.32c-.346 0-.6-.112-.762-.335-.162-.223-.243-.515-.243-.876V48.93h-1.217v4.288c0 .425.053.778.162 1.06.107.281.254.51.437.684.185.176.398.301.642.375.243.074.5.111.77.111H92.68c.432 0 .819-.015 1.16-.048.34-.032.648-.079.925-.143.275-.064.537-.149.786-.255.249-.106.503-.234.763-.382l1.314-.765c.075.223.168.433.275.63.109.196.245.366.407.51.162.143.353.254.576.334.22.08.494.12.819.12h3.569c.325 0 .633-.06.925-.184.292-.122.552-.369.779-.74.205.371.463.618.77.74.309.123.647.183 1.015.183h1.985c.717 0 1.274-.193 1.67-.58.397-.389.595-.949.595-1.683V51.26h-1.217v1.863zM109.163 48.996h1.428v-1.242h-1.428zM112.909 54.866h.996v-5.338h-.996zM118.83 53.696c0-.112.002-.202.008-.27a.307.307 0 0 1 .058-.164.302.302 0 0 1 .141-.092c.061-.023.15-.046.266-.07v-.439a2.357 2.357 0 0 0-.503.122.572.572 0 0 0-.289.237c-.067.11-.11.255-.128.438-.02.183-.029.421-.029.713 0 .2.042.343.128.433.085.09.21.135.375.135.328 0 .493-.174.493-.522 0-.186-.043-.32-.13-.4-.087-.08-.217-.12-.39-.12M143.434 53.237v-1.925h-1.216v1.862c0 .338-.1.598-.3.78-.2.18-.466.27-.801.27-.282 0-.527-.078-.738-.23-.211-.155-.315-.428-.315-.82v-1.862h-1.216v1.862c0 .338-.105.598-.315.78-.211.18-.522.27-.932.27-.303 0-.575-.078-.818-.23-.244-.155-.365-.428-.365-.82v-1.862h-1.215v1.862c0 .338-.1.598-.3.78-.2.18-.49.27-.866.27H125.853l-.08 1.272h2.3c.282 0 .479.077.592.23a.9.9 0 0 1 .17.55c0 .19-.043.373-.13.548a1.204 1.204 0 0 1-.42.462c-.195.133-.452.238-.77.318a4.968 4.968 0 0 1-1.175.12h-1.167c-.874 0-1.501-.229-1.88-.685-.377-.456-.566-1.066-.566-1.829v-2.498h-1.215v2.546c0 1.156.305 2.068.915 2.736.61.668 1.467 1.002 2.569 1.002h1.522c.659 0 1.21-.085 1.653-.254.443-.17.799-.385 1.07-.645.269-.259.464-.54.583-.843a2.29 2.29 0 0 0 .178-.835c0-.212-.024-.396-.073-.549a.767.767 0 0 0-.251-.374h4.325c.346 0 .67-.06.973-.183.303-.122.567-.368.794-.74.216.372.48.618.794.74a2.83 2.83 0 0 0 1.037.183c.346 0 .678-.06.996-.183.318-.122.592-.368.818-.74.217.372.477.618.782.74.303.122.629.183.975.183.705 0 1.258-.194 1.659-.58.402-.388.603-.948.603-1.679M146.506 51.767h-1.071v3.479c0 .28-.043.55-.13.813a1.862 1.862 0 0 1-.405.694 2.025 2.025 0 0 1-.722.485c-.295.12-.648.182-1.058.182h-.6l.072 1.122h.786c.438 0 .848-.082 1.229-.245.38-.164.71-.393.989-.687.278-.295.5-.644.664-1.045a3.46 3.46 0 0 0 .246-1.32v-3.478zM152.545 58.759h1.428V57.5h-1.428zM154.442 51.309v1.863c0 .34-.1.6-.3.78-.2.18-.478.27-.835.27h-1.475c-.335 0-.612-.09-.828-.27-.216-.18-.324-.424-.324-.732v-1.911h-1.217v3.949c0 .319-.047.626-.145.924-.098.297-.249.56-.454.788a2.216 2.216 0 0 1-.795.549c-.324.139-.708.207-1.15.207h-.228l.081 1.274h.357c.497 0 .96-.093 1.386-.278a3.304 3.304 0 0 0 1.108-.78c.31-.335.556-.731.737-1.187a4.03 4.03 0 0 0 .271-1.497v-.287c.152.192.335.327.552.406.216.08.432.12.65.12h1.561c.717 0 1.274-.194 1.67-.582.397-.386.595-.947.595-1.68V51.31h-1.217z" mask="url(#b)"/>
        </g>
    </g>
</svg>
