<svg xmlns="http://www.w3.org/2000/svg" width="25" height="23" viewBox="0 0 25 23">
    <g fill="#64D979" fill-rule="nonzero">
        <path d="M10.833 21.275A1.73 1.73 0 0 0 12.583 23a1.73 1.73 0 0 0 1.75-1.725 1.73 1.73 0 0 0-1.75-1.725 1.73 1.73 0 0 0-1.75 1.725zm2.417 0c0 .356-.278.63-.639.63s-.667-.274-.667-.63.278-.63.64-.63c.36 0 .666.274.666.63zm5.639 0A1.73 1.73 0 0 0 20.639 23a1.73 1.73 0 0 0 1.75-1.725 1.73 1.73 0 0 0-1.75-1.725 1.73 1.73 0 0 0-1.75 1.725zm2.417 0c0 .356-.278.63-.64.63-.36 0-.666-.274-.666-.63s.278-.63.639-.63.667.274.667.63zM1.333 3.833H4.75c.417 0 .806-.191 1.056-.52.36.082.694.356.805.74l1.722 10.705v.028c0 .082.028.137.028.191l.25 1.479c.028 1.177 1 2.136 2.222 2.136H23.89a.553.553 0 0 0 .555-.548.553.553 0 0 0-.555-.548H10.833a1.107 1.107 0 0 1-1.11-1.095v-.082l-.167-.986h13.222c1.222 0 2.222-.985 2.222-2.19V8.488c0-1.205-1-2.19-2.222-2.19h-1.25c.028-.22.055-.438.055-.658 0-2.984-2.472-5.421-5.5-5.421-3.027 0-5.527 2.41-5.527 5.421 0 .22.027.439.055.658h-2.5L7.722 3.86v-.055a2.212 2.212 0 0 0-1.61-1.533 1.344 1.344 0 0 0-1.334-1.178H1.333C.611 1.095 0 1.698 0 2.41v.082c0 .739.611 1.341 1.333 1.341zm14.723-2.519c2.416 0 4.388 1.944 4.388 4.326 0 2.383-1.972 4.327-4.388 4.327-2.417 0-4.39-1.944-4.39-4.327 0-2.382 1.973-4.326 4.39-4.326zM10.86 7.393a5.515 5.515 0 0 0 5.195 3.669c2.388 0 4.472-1.533 5.222-3.67h1.5c.61 0 1.11.494 1.11 1.096v4.655c0 .602-.5 1.095-1.11 1.095H9.388l-1.11-6.845h2.583-.001zM1.111 2.41c0-.11.111-.22.222-.22H4.75c.139 0 .222.11.222.22v.082a.218.218 0 0 1-.222.219H1.333c-.11.027-.222-.082-.222-.192v-.11.001z"/>
        <path d="M14.944 7.913c.112.11.25.164.39.164a.67.67 0 0 0 .388-.137l3.39-3.066a.524.524 0 0 0 .027-.767.542.542 0 0 0-.778-.027l-3 2.71-1.417-1.396a.542.542 0 0 0-.777 0 .524.524 0 0 0 0 .767l1.777 1.752z"/>
    </g>
</svg>